<svg width="105" height="105" viewBox="0 0 105 105" fill="none" xmlns="http://www.w3.org/2000/svg">
<g opacity="0.5">
<path d="M50.3125 35C61.25 35 70 43.75 70 54.6875C70 65.625 61.25 74.375 50.3125 74.375C39.375 74.375 30.625 65.625 30.625 54.6875C30.625 43.75 39.375 35 50.3125 35ZM50.3125 39.375C46.2514 39.375 42.3566 40.9883 39.4849 43.8599C36.6133 46.7316 35 50.6264 35 54.6875C35 58.7486 36.6133 62.6434 39.4849 65.5151C42.3566 68.3867 46.2514 70 50.3125 70C54.3736 70 58.2684 68.3867 61.1401 65.5151C64.0117 62.6434 65.625 58.7486 65.625 54.6875C65.625 50.6264 64.0117 46.7316 61.1401 43.8599C58.2684 40.9883 54.3736 39.375 50.3125 39.375ZM21.875 21.875H30.625L39.375 13.125H61.25L70 21.875H78.75C82.231 21.875 85.5694 23.2578 88.0308 25.7192C90.4922 28.1806 91.875 31.519 91.875 35V74.375C91.875 77.856 90.4922 81.1944 88.0308 83.6558C85.5694 86.1172 82.231 87.5 78.75 87.5H21.875C18.394 87.5 15.0556 86.1172 12.5942 83.6558C10.1328 81.1944 8.75 77.856 8.75 74.375V35C8.75 31.519 10.1328 28.1806 12.5942 25.7192C15.0556 23.2578 18.394 21.875 21.875 21.875ZM41.1688 17.5L32.4187 26.25H21.875C19.5544 26.25 17.3288 27.1719 15.6878 28.8128C14.0469 30.4538 13.125 32.6794 13.125 35V74.375C13.125 76.6956 14.0469 78.9212 15.6878 80.5622C17.3288 82.2031 19.5544 83.125 21.875 83.125H78.75C81.0706 83.125 83.2962 82.2031 84.9372 80.5622C86.5781 78.9212 87.5 76.6956 87.5 74.375V35C87.5 32.6794 86.5781 30.4538 84.9372 28.8128C83.2962 27.1719 81.0706 26.25 78.75 26.25H68.2062L59.4562 17.5H41.1688Z" fill="black"/>
</g>
</svg>
