<svg width="111" height="111" viewBox="0 0 111 111" fill="none" xmlns="http://www.w3.org/2000/svg">
<g opacity="0.5">
<path d="M21.349 87.875C19.2184 87.875 17.4409 87.1628 16.0164 85.7383C14.5919 84.3138 13.8781 82.5347 13.875 80.401V30.599C13.875 28.4684 14.5888 26.6909 16.0164 25.2664C17.444 23.8419 19.22 23.1281 21.3444 23.125H44.3815L53.6315 32.375H89.6556C91.7831 32.375 93.5607 33.0888 94.9883 34.5164C96.4158 35.944 97.1281 37.7215 97.125 39.849V80.4056C97.125 82.5331 96.4128 84.3107 94.9883 85.7383C93.5638 87.1658 91.7862 87.8781 89.6556 87.875H21.349ZM21.349 83.25H89.6556C90.485 83.25 91.1665 82.9833 91.6999 82.4499C92.2333 81.9165 92.5 81.235 92.5 80.4056V39.8444C92.5 39.015 92.2333 38.3335 91.6999 37.8001C91.1665 37.2667 90.485 37 89.6556 37H51.7769L42.5269 27.75H21.3444C20.515 27.75 19.8335 28.0167 19.3001 28.5501C18.7667 29.0835 18.5 29.7665 18.5 30.599V80.4056C18.5 81.235 18.7667 81.9165 19.3001 82.4499C19.8335 82.9833 20.5165 83.25 21.349 83.25Z" fill="black"/>
</g>
</svg>
