<svg width="68" height="68" viewBox="0 0 68 68" fill="none" xmlns="http://www.w3.org/2000/svg">
<path d="M17.0003 53.8334H27.461V39.4486C27.461 38.8007 27.6811 38.2577 28.1212 37.8194C28.5594 37.3793 29.1024 37.1593 29.7503 37.1593H38.2503C38.8982 37.1593 39.4422 37.3793 39.8823 37.8194C40.3206 38.2577 40.5397 38.8007 40.5397 39.4486V53.8334H51.0003V29.2061C51.0003 28.9152 50.9371 28.6508 50.8105 28.4128C50.6839 28.1748 50.5111 27.967 50.292 27.7894L35.0373 16.2918C34.7464 16.0387 34.4008 15.9121 34.0003 15.9121C33.5999 15.9121 33.2552 16.0387 32.9662 16.2918L17.7087 27.7894C17.4914 27.9708 17.3186 28.1785 17.1902 28.4128C17.0617 28.647 16.9984 28.9114 17.0003 29.2061V53.8334ZM14.167 53.8334V29.2061C14.167 28.4808 14.3294 27.7942 14.6543 27.1463C14.9792 26.4984 15.4269 25.9648 15.9973 25.5454L31.2548 13.9911C32.0538 13.381 32.9662 13.0759 33.9918 13.0759C35.0175 13.0759 35.9355 13.381 36.7458 13.9911L52.0033 25.5426C52.5757 25.9619 53.0233 26.4965 53.3463 27.1463C53.6712 27.7942 53.8337 28.4808 53.8337 29.2061V53.8334C53.8337 54.5928 53.5513 55.2548 52.9865 55.8196C52.4217 56.3844 51.7597 56.6668 51.0003 56.6668H39.9957C39.3459 56.6668 38.8019 56.4477 38.3637 56.0094C37.9254 55.5693 37.7063 55.0253 37.7063 54.3774V39.9954H30.2943V54.3774C30.2943 55.0272 30.0752 55.5712 29.637 56.0094C29.1988 56.4477 28.6557 56.6668 28.0078 56.6668H17.0003C16.241 56.6668 15.5789 56.3844 15.0142 55.8196C14.4494 55.2548 14.167 54.5928 14.167 53.8334Z" fill="black"/>
</svg>
